<svg version="1" xmlns="http://www.w3.org/2000/svg" width="533.333" height="533.333" viewBox="0 0 400.000000 400.000000"><path d="M196 25.2c-1.1 1.8-5.5 9.1-9.9 16.3-4.3 7.1-14.4 23.7-22.3 36.7-7.8 13.1-15.5 25.7-16.9 28-1.4 2.4-11.7 19.4-22.9 37.8s-30 49.5-41.8 69C52.1 262.6 41 281.2 41 281.9c.1 1.7 3.6 4.1 27.5 18.3 14.3 8.5 44 26.2 66 39.3 22 13.1 44.3 26.4 49.5 29.5 5.2 3.2 11.1 6.6 13.1 7.5l3.7 1.8 17.3-10.3c9.6-5.6 18.8-11 20.4-12 1.7-.9 9.1-5.3 16.5-9.7 7.4-4.4 33.5-19.9 58-34.3 24.5-14.4 44.8-26.7 45.1-27.2 1.4-2.3 3.8 2-28.9-52.3-11.3-18.7-21-34.9-21.6-35.9-.6-1.1-1.5-2.5-1.9-3-.7-1.1-27.2-45.1-30.7-51.1-5.1-8.8-69.5-115.4-71.2-117.8-2.6-3.6-5.4-3.5-7.8.5zm13.9 24.6c2.8 4.6 5.1 8.5 5.1 8.7 0 .2 2.7 4.7 6 10s6 9.8 6 10c0 .3 1.7 3.1 3.7 6.2 2.1 3.2 4.3 6.7 4.9 7.8.6 1.1 14.3 24 30.6 51 16.2 26.9 40.2 66.8 53.2 88.5 13.1 21.7 24.3 40.1 24.8 40.8 2.2 2.6-.1 2.1-8.3-1.7-12.1-5.6-21.1-9.7-31.9-14.6-36.2-16.3-37-17.1-40.6-36.3-2.8-15.1-7.7-25.3-16.7-34.9-5.5-5.9-15.9-12.7-24-15.8l-6.5-2.4-2.2 3.6c-1.1 1.9-2 3.7-1.8 3.8.2.1 3.1 1.2 6.6 2.3 7.2 2.4 17 8.7 22.1 14 7.3 7.8 13.1 19.5 14.5 29.3 2.4 16.3 4.6 21 12.8 27.4 3.5 2.7 44.6 22.3 72.6 34.6 1.7.7 3.2 1.6 3.2 1.9 0 .3-1.7 1.4-3.8 2.6-2 1.1-11.1 6.5-20.2 11.9-15.2 9-62.2 36.8-69.7 41.1-1.8 1.1-12.4 7.3-23.5 13.9-11.1 6.6-20.8 12.1-21.4 12.3-.9.2-1.1-7.4-1-30 .2-33.6.2-33.9 7-39.5 1.9-1.5 8.4-5.6 14.5-9.1 12.4-7.1 19.5-13 25.8-21.6l4.3-6-3.2-3.3-3.2-3.3-1.3 2.8c-4.5 9.4-12.9 16.7-32 27.8-10.2 5.9-14.9 10.2-17.6 16.2-2 4.4-2.1 6.6-2.3 35-.1 16.7-.5 30.6-.8 30.9-.3.3-12.6-6.6-27.3-15.4-14.7-8.8-44.8-26.7-66.8-39.8-22-13.1-41.5-24.7-43.4-25.8l-3.3-2 2.5-1.4c5.8-3 64.5-29.1 67.7-30.1 4.4-1.3 10.9-.9 13.8.9 1.3.8 5.4 5.5 9.3 10.6 10.5 13.7 20 21.3 31.7 25l5.3 1.7 2.4-3c1.3-1.6 2.4-3.2 2.5-3.5 0-.4-2.1-1.2-4.6-1.8-12.3-3.1-21.8-10.4-32.5-24.8-7.7-10.4-11.3-12.8-20.2-13.6-7.7-.7-13.5 1.4-49.7 18-9.6 4.5-27.2 12.3-27.5 12.3-.2 0 6.4-10.9 14.6-24.3 8.1-13.3 15.4-25.3 16.2-26.7 5.3-9.8 109.1-180 109.5-179.6.7.8.5 101.1-.2 106.9-1.2 9.4-4.4 12.6-20.8 21.5-19.8 10.6-30.1 23.2-35.2 42.8-2.3 9-2.1 12 .8 12.8 1.3.3 3 .8 3.8 1.1.9.4 1.4-.6 1.5-3.7.4-5.7 3.6-16.3 7-22.4 4.4-8.1 15.6-18.2 25.6-23.4 11.8-6 19.4-12.3 22.6-18.5l2.6-4.9.3-56.9c.1-31.3.4-56.8.6-56.6.2.2 2.6 4.1 5.5 8.7z"/><path d="M191 187.4c-2.5.7-6.3 2.1-8.5 3.2-3.9 1.9-4 2.1-4.3 7.5l-.3 5.6 7.2-3.6c12-6 22.3-4.8 26.8 3.1 2.8 4.9.8 9.1-8.9 19-4.9 4.9-9.3 10.2-9.8 11.7-.5 1.4-1 5.9-1.1 9.8l-.2 7.3H204v-6.6c0-3.6.5-7.5 1.1-8.7.7-1.2 4.9-6.1 9.5-10.8 8.4-8.8 10.4-12.6 10.4-19.5 0-4.9-2.6-9.9-7-13.7-6.4-5.5-16.9-7.1-27-4.3zM192 267.5v7.5h12v-15h-12v7.5z"/></svg>