<svg version="1" xmlns="http://www.w3.org/2000/svg" width="128" height="128" viewBox="0 0 96.000000 96.000000"><path d="M44.6 2.2c-1.3 2.1-25.5 45.6-34 61-2 3.6-3.4 7.2-3.1 8 .7 1.7 37.4 23.9 40 24.1 2.4.2 40.2-22.1 41-24.1.3-.8-.9-4-2.6-7.1-1.8-3.1-4.4-7.9-5.9-10.6-1.5-2.8-5.6-10.2-9.2-16.5-3.6-6.3-8-14.2-9.8-17.5C49.8-.9 47.9-3 44.6 2.2zm.3 32.5c-.6 1.2-2.5 2.7-4 3.4-3.8 1.5-9.7 8.1-10.4 11.6-.4 1.6-.8 3.7-1 4.7-.4 2 1 4.6 2.5 4.6.4 0 1-2.2 1.4-4.8.8-6.1 2.5-8.4 9.2-12.7 3-1.9 5.9-4.6 6.3-5.9.5-1.2.9-7.8.9-14.5s.2-12.4.4-12.6c.3-.4 31.7 55 32.6 57.6.4.9-8.2-2.8-11.8-5.2-1.1-.8-3.2-4.5-4.6-8.4-2.8-7.8-5.2-10.8-10.6-13.6-3.2-1.6-3.8-1.7-4.8-.3-1.5 1.7-1.5 1.6 2.8 3.4 4.2 1.6 7.7 6.2 9.2 11.9 1.8 6.9 3.7 8.9 12.3 13.2l7.9 4-7.8 4.8C71 78.5 63.7 83 59 85.8l-8.5 5.1-.3-6.6c-.2-3.6-.1-7.2.2-7.9.3-.7 3-2.8 6-4.8 6.1-3.9 8.2-6.7 6.8-9.3-.8-1.4-1.2-1.3-2.7 1.1-1 1.5-3.7 3.8-6.1 5.2-7 4.1-8.4 6.5-8.3 14.6.1 3.8-.1 7.1-.3 7.3-.1.2-7.7-4.1-16.7-9.5l-16.3-9.8 5.3-3.1c3-1.7 6-3.1 6.7-3.2.6-.1 1.8-.2 2.5-.3.6-.1 4.6 2 8.8 4.6 5.7 3.5 7.9 4.4 8.8 3.5 1.6-1.6 1.4-2.5-1.1-3.3-1.3-.4-4.7-2.4-7.7-4.5-6.5-4.6-9.5-4.9-16.9-1.4-3 1.4-5.5 2.5-5.7 2.5-.2 0 7-13.1 15.8-29.1l16.2-29 .3 12.3c.2 8-.1 13.1-.9 14.5z"/><path d="M43.2 45.2c-.7.7-1.2 1.8-1.2 2.5 0 1.1.5 1.1 2.1.3 2.4-1.4 6.9-.5 6.9 1.3 0 .6-1.1 2.5-2.5 4.1-2.8 3.2-3.3 6.6-1 6.6.8 0 1.5-.7 1.5-1.6 0-.9 1.1-2.9 2.5-4.6 3-3.5 3.2-5.9.7-8.1-2.2-2-7.3-2.2-9-.5zM46 64c0 1.1.7 2 1.5 2s1.5-.9 1.5-2-.7-2-1.5-2-1.5.9-1.5 2z"/></svg>